<svg width="87" height="40" viewBox="0 0 87 40" fill="none" xmlns="http://www.w3.org/2000/svg">
<g clip-path="url(#clip0_272_4780)">
<path d="M6.80861 22.4353C7.05027 22.7395 7.3823 22.9879 7.80515 23.138L19.4415 27.2692C19.9132 27.4367 20.4269 27.4367 20.8986 27.2692L32.535 23.138C32.9139 23.0035 33.2196 22.7899 33.453 22.5282L36.0209 23.4415C37.993 24.1429 37.993 26.977 36.0209 27.6784L32.7602 28.8379V38.7498H31.8767V29.1522L20.7297 33.1166C20.2573 33.2846 19.7427 33.2846 19.2703 33.1166L3.97905 27.6784C2.00698 26.977 2.00699 24.1429 3.97905 23.4415L6.80861 22.4353Z" fill="url(#paint0_linear_272_4780)"/>
<path d="M19.33 33.923C19.8024 34.0909 20.3171 34.091 20.7895 33.923L30.9932 30.2941V33.5723H30.9738C30.9865 33.6517 30.9932 33.7317 30.9932 33.8123C30.9931 36.0434 26.0486 37.8521 19.9493 37.8521C13.85 37.8521 8.90554 36.0434 8.90544 33.8123C8.90544 33.7317 8.91214 33.6517 8.92485 33.5723H8.90544V30.2154L19.33 33.923Z" fill="url(#paint1_linear_272_4780)"/>
<path d="M19.3294 14.7708C19.8021 14.6025 20.3174 14.6025 20.7901 14.7708L31.4481 18.5647C33.4194 19.2664 33.4194 22.0992 31.4481 22.8009L20.7901 26.5948C20.3174 26.7631 19.8021 26.7631 19.3294 26.5948L8.6714 22.8009C6.70005 22.0992 6.70005 19.2664 8.6714 18.5647L19.3294 14.7708Z" fill="url(#paint2_linear_272_4780)"/>
<path d="M23.6501 0.134666C25.62 -0.571325 27.3644 1.63842 26.2588 3.43917L20.2811 13.1749C20.0159 13.6068 19.6143 13.9343 19.1419 14.1036L8.49173 17.9205C6.52185 18.6265 4.77741 16.4168 5.88304 14.616L11.8608 4.88025C12.1259 4.44844 12.5275 4.12091 12.9999 3.9516L23.6501 0.134666Z" fill="url(#paint3_linear_272_4780)"/>
</g>
<path d="M79.4355 3.74365C81.7331 3.74365 82.8822 3.74385 83.7598 4.19092C84.5317 4.58425 85.1594 5.21194 85.5527 5.98389C85.9998 6.86146 86 8.01052 86 10.3081V17.6929C86 19.99 85.9998 21.1386 85.5527 22.0161C85.1594 22.7881 84.5317 23.4158 83.7598 23.8091C82.8822 24.2562 81.7331 24.2563 79.4355 24.2563H52.5645C50.2668 24.2563 49.1178 24.2562 48.2402 23.8091C47.4683 23.4158 46.8406 22.7881 46.4473 22.0161C46.0003 21.1386 46 19.99 46 17.6929V10.3081C46 8.01054 46.0002 6.86146 46.4473 5.98389C46.8406 5.21194 47.4683 4.58425 48.2402 4.19092C49.1178 3.74382 50.2669 3.74365 52.5645 3.74365H79.4355ZM58.8457 7.74365V8.64502H54.0566V14.519C54.0566 16.8575 53.7889 18.6469 53 20.7036H55.0713C55.6488 18.7033 55.916 16.7588 55.916 14.519V13.6743H65.3125V8.64502H60.7334V7.74365H58.8457ZM56.5645 14.8716V20.605H65.6357V14.8716H56.5645ZM68.0586 20.5913H79.3564V14.7729H68.0586V20.5913ZM77.5254 19.0552H69.8906V18.3647H77.5254V19.0552ZM63.8047 16.647V18.8306H58.3955V16.647H63.8047ZM77.5254 16.9985H69.8906V16.3081H77.5254V16.9985ZM67.3545 9.87061H69.623V10.5327H67.3691V12.0825H69.4678C68.8339 12.5473 68.172 12.8013 67.3691 12.9985V14.6606C68.6931 14.393 69.6366 14.0262 70.5381 13.0825C71.4397 14.0263 72.3979 14.393 73.708 14.6606V12.9985C72.9052 12.8014 72.2432 12.5472 71.6094 12.0825H73.708V10.5327H71.4258V9.87061H73.4121V8.34912H69.7637L69.9609 7.85596H68.1572L67.3545 9.87061ZM74.2998 14.1958H79.6953V8.27881H74.2998V14.1958ZM77.9336 12.4351H76.0605V10.0396H77.9336V12.4351ZM63.4521 10.4761V11.9136H55.916V10.4761H63.4521Z" fill="#001081"/>
<path d="M46.6915 27.7109H48.3981L50.2007 32.1086H50.2774L52.0799 27.7109H53.7866V34.2563H52.4443V29.996H52.39L50.6961 34.2244H49.782L48.0881 29.9801H48.0338V34.2563H46.6915V27.7109ZM57.1385 34.3522C56.6335 34.3522 56.1988 34.25 55.8345 34.0454C55.4723 33.8387 55.1931 33.5468 54.9971 33.1697C54.8011 32.7904 54.7031 32.3419 54.7031 31.8242C54.7031 31.3192 54.8011 30.876 54.9971 30.4946C55.1931 30.1132 55.4691 29.816 55.8249 29.6029C56.1828 29.3899 56.6026 29.2833 57.0841 29.2833C57.408 29.2833 57.7095 29.3355 57.9886 29.4399C58.2698 29.5422 58.5149 29.6967 58.7237 29.9034C58.9346 30.11 59.0987 30.37 59.2159 30.6832C59.3331 30.9943 59.3916 31.3586 59.3916 31.7762V32.1502H55.2464V31.3064H58.11C58.11 31.1104 58.0674 30.9367 57.9822 30.7855C57.897 30.6342 57.7787 30.5159 57.6274 30.4307C57.4783 30.3434 57.3046 30.2997 57.1065 30.2997C56.8998 30.2997 56.7166 30.3476 56.5568 30.4435C56.3991 30.5372 56.2755 30.664 56.186 30.8238C56.0965 30.9815 56.0507 31.1573 56.0486 31.3512V32.1534C56.0486 32.3963 56.0934 32.6061 56.1828 32.783C56.2745 32.9598 56.4034 33.0962 56.5696 33.1921C56.7358 33.288 56.9328 33.3359 57.1608 33.3359C57.3121 33.3359 57.4506 33.3146 57.5763 33.272C57.702 33.2294 57.8096 33.1654 57.8991 33.0802C57.9886 32.995 58.0568 32.8906 58.1036 32.767L59.3629 32.8501C59.299 33.1527 59.1679 33.4169 58.9698 33.6427C58.7737 33.8664 58.5202 34.0411 58.2091 34.1669C57.9002 34.2904 57.5433 34.3522 57.1385 34.3522ZM61.6416 31.4183V34.2563H60.2801V29.3473H61.5777V30.2134H61.6353C61.7439 29.9279 61.9261 29.702 62.1818 29.5358C62.4375 29.3675 62.7475 29.2833 63.1118 29.2833C63.4527 29.2833 63.75 29.3579 64.0035 29.5071C64.2571 29.6562 64.4541 29.8693 64.5948 30.1463C64.7354 30.4211 64.8057 30.7492 64.8057 31.1306V34.2563H63.4442V31.3735C63.4463 31.0731 63.3696 30.8387 63.2141 30.6704C63.0585 30.5 62.8444 30.4147 62.5717 30.4147C62.3885 30.4147 62.2265 30.4541 62.0859 30.533C61.9474 30.6118 61.8387 30.7269 61.7599 30.8782C61.6832 31.0273 61.6438 31.2073 61.6416 31.4183ZM68.4899 29.3473V30.37H65.5336V29.3473H68.4899ZM66.2048 28.1711H67.5663V32.7478C67.5663 32.8735 67.5854 32.9715 67.6238 33.0419C67.6622 33.11 67.7154 33.158 67.7836 33.1857C67.8539 33.2134 67.9349 33.2272 68.0265 33.2272C68.0904 33.2272 68.1543 33.2219 68.2183 33.2112C68.2822 33.1985 68.3312 33.1889 68.3653 33.1825L68.5794 34.1956C68.5112 34.2169 68.4153 34.2414 68.2918 34.2691C68.1682 34.299 68.018 34.3171 67.8411 34.3235C67.513 34.3362 67.2254 34.2926 66.9782 34.1924C66.7332 34.0923 66.5425 33.9367 66.4061 33.7258C66.2698 33.5149 66.2026 33.2485 66.2048 32.9268V28.1711ZM71.5421 34.3522C71.0457 34.3522 70.6163 34.2468 70.2541 34.0358C69.894 33.8228 69.616 33.5266 69.42 33.1473C69.2239 32.7659 69.1259 32.3238 69.1259 31.821C69.1259 31.3139 69.2239 30.8707 69.42 30.4914C69.616 30.11 69.894 29.8139 70.2541 29.6029C70.6163 29.3899 71.0457 29.2833 71.5421 29.2833C72.0386 29.2833 72.4668 29.3899 72.8269 29.6029C73.1891 29.8139 73.4683 30.11 73.6643 30.4914C73.8603 30.8707 73.9583 31.3139 73.9583 31.821C73.9583 32.3238 73.8603 32.7659 73.6643 33.1473C73.4683 33.5266 73.1891 33.8228 72.8269 34.0358C72.4668 34.2468 72.0386 34.3522 71.5421 34.3522ZM71.5485 33.2975C71.7744 33.2975 71.9629 33.2336 72.1142 33.1058C72.2655 32.9758 72.3795 32.799 72.4562 32.5752C72.535 32.3515 72.5744 32.0969 72.5744 31.8114C72.5744 31.5259 72.535 31.2713 72.4562 31.0475C72.3795 30.8238 72.2655 30.647 72.1142 30.517C71.9629 30.387 71.7744 30.322 71.5485 30.322C71.3205 30.322 71.1288 30.387 70.9732 30.517C70.8198 30.647 70.7037 30.8238 70.6249 31.0475C70.5482 31.2713 70.5098 31.5259 70.5098 31.8114C70.5098 32.0969 70.5482 32.3515 70.6249 32.5752C70.7037 32.799 70.8198 32.9758 70.9732 33.1058C71.1288 33.2336 71.3205 33.2975 71.5485 33.2975ZM74.8436 34.2563V29.3473H76.1636V30.2038H76.2147C76.3042 29.8991 76.4544 29.669 76.6653 29.5135C76.8763 29.3558 77.1192 29.2769 77.394 29.2769C77.4622 29.2769 77.5357 29.2812 77.6146 29.2897C77.6934 29.2983 77.7627 29.31 77.8223 29.3249V30.533C77.7584 30.5138 77.67 30.4968 77.557 30.4818C77.4441 30.4669 77.3408 30.4595 77.247 30.4595C77.0467 30.4595 76.8678 30.5032 76.7101 30.5905C76.5546 30.6757 76.431 30.7951 76.3394 30.9485C76.2499 31.1019 76.2051 31.2787 76.2051 31.479V34.2563H74.8436ZM79.3196 34.2563H77.8367L80.0963 27.7109H81.8797L84.1361 34.2563H82.6531L81.0135 29.2066H80.9624L79.3196 34.2563ZM79.227 31.6835H82.7298V32.7638H79.227V31.6835ZM86.3078 27.7109V34.2563H84.9239V27.7109H86.3078Z" fill="#001081"/>
<defs>
<linearGradient id="paint0_linear_272_4780" x1="23.5" y1="32.5" x2="13.2279" y2="3.09505" gradientUnits="userSpaceOnUse">
<stop stop-color="#001081"/>
<stop offset="0.490385" stop-color="#86AAF2"/>
<stop offset="1" stop-color="#B7E1F4"/>
</linearGradient>
<linearGradient id="paint1_linear_272_4780" x1="23.5" y1="32.5" x2="13.2279" y2="3.09505" gradientUnits="userSpaceOnUse">
<stop stop-color="#001081"/>
<stop offset="0.490385" stop-color="#86AAF2"/>
<stop offset="1" stop-color="#B7E1F4"/>
</linearGradient>
<linearGradient id="paint2_linear_272_4780" x1="23.5" y1="32.5" x2="13.2279" y2="3.09505" gradientUnits="userSpaceOnUse">
<stop stop-color="#001081"/>
<stop offset="0.490385" stop-color="#86AAF2"/>
<stop offset="1" stop-color="#B7E1F4"/>
</linearGradient>
<linearGradient id="paint3_linear_272_4780" x1="23.5" y1="32.5" x2="13.2279" y2="3.09505" gradientUnits="userSpaceOnUse">
<stop stop-color="#001081"/>
<stop offset="0.490385" stop-color="#86AAF2"/>
<stop offset="1" stop-color="#B7E1F4"/>
</linearGradient>
<clipPath id="clip0_272_4780">
<rect width="40" height="40" fill="white"/>
</clipPath>
</defs>
</svg>
